
<svg id="visual" viewBox="0 0 900 600" width="900" height="600" xmlns="http://www.w3.org/2000/svg" xmlns:xlink="http://www.w3.org/1999/xlink" version="1.1"><path d="M0 85L13.7 92C27.3 99 54.7 113 82 119C109.3 125 136.7 123 163.8 120C191 117 218 113 245.2 110C272.3 107 299.7 105 327 98C354.3 91 381.7 79 409 86C436.3 93 463.7 119 491 129C518.3 139 545.7 133 573 131C600.3 129 627.7 131 654.8 129C682 127 709 121 736.2 122C763.3 123 790.7 131 818 135C845.3 139 872.7 139 886.3 139L900 139L900 0L886.3 0C872.7 0 845.3 0 818 0C790.7 0 763.3 0 736.2 0C709 0 682 0 654.8 0C627.7 0 600.3 0 573 0C545.7 0 518.3 0 491 0C463.7 0 436.3 0 409 0C381.7 0 354.3 0 327 0C299.7 0 272.3 0 245.2 0C218 0 191 0 163.8 0C136.7 0 109.3 0 82 0C54.7 0 27.3 0 13.7 0L0 0Z" fill="#000000"></path><path d="M0 187L13.7 191C27.3 195 54.7 203 82 199C109.3 195 136.7 179 163.8 178C191 177 218 191 245.2 194C272.3 197 299.7 189 327 183C354.3 177 381.7 173 409 181C436.3 189 463.7 209 491 213C518.3 217 545.7 205 573 200C600.3 195 627.7 197 654.8 195C682 193 709 187 736.2 191C763.3 195 790.7 209 818 209C845.3 209 872.7 195 886.3 188L900 181L900 137L886.3 137C872.7 137 845.3 137 818 133C790.7 129 763.3 121 736.2 120C709 119 682 125 654.8 127C627.7 129 600.3 127 573 129C545.7 131 518.3 137 491 127C463.7 117 436.3 91 409 84C381.7 77 354.3 89 327 96C299.7 103 272.3 105 245.2 108C218 111 191 115 163.8 118C136.7 121 109.3 123 82 117C54.7 111 27.3 97 13.7 90L0 83Z" fill="#0c0707"></path><path d="M0 379L13.7 377C27.3 375 54.7 371 82 378C109.3 385 136.7 403 163.8 403C191 403 218 385 245.2 389C272.3 393 299.7 419 327 404C354.3 389 381.7 333 409 317C436.3 301 463.7 325 491 331C518.3 337 545.7 325 573 325C600.3 325 627.7 337 654.8 331C682 325 709 301 736.2 304C763.3 307 790.7 337 818 344C845.3 351 872.7 335 886.3 327L900 319L900 179L886.3 186C872.7 193 845.3 207 818 207C790.7 207 763.3 193 736.2 189C709 185 682 191 654.8 193C627.7 195 600.3 193 573 198C545.7 203 518.3 215 491 211C463.7 207 436.3 187 409 179C381.7 171 354.3 175 327 181C299.7 187 272.3 195 245.2 192C218 189 191 175 163.8 176C136.7 177 109.3 193 82 197C54.7 201 27.3 193 13.7 189L0 185Z" fill="#120e0e"></path><path d="M0 427L13.7 426C27.3 425 54.7 423 82 431C109.3 439 136.7 457 163.8 463C191 469 218 463 245.2 467C272.3 471 299.7 485 327 468C354.3 451 381.7 403 409 397C436.3 391 463.7 427 491 430C518.3 433 545.7 403 573 403C600.3 403 627.7 433 654.8 430C682 427 709 391 736.2 390C763.3 389 790.7 423 818 430C845.3 437 872.7 417 886.3 407L900 397L900 317L886.3 325C872.7 333 845.3 349 818 342C790.7 335 763.3 305 736.2 302C709 299 682 323 654.8 329C627.7 335 600.3 323 573 323C545.7 323 518.3 335 491 329C463.7 323 436.3 299 409 315C381.7 331 354.3 387 327 402C299.7 417 272.3 391 245.2 387C218 383 191 401 163.8 401C136.7 401 109.3 383 82 376C54.7 369 27.3 373 13.7 375L0 377Z" fill="#171414"></path><path d="M0 601L13.7 601C27.3 601 54.7 601 82 601C109.3 601 136.7 601 163.8 601C191 601 218 601 245.2 601C272.3 601 299.7 601 327 601C354.3 601 381.7 601 409 601C436.3 601 463.7 601 491 601C518.3 601 545.7 601 573 601C600.3 601 627.7 601 654.8 601C682 601 709 601 736.2 601C763.3 601 790.7 601 818 601C845.3 601 872.7 601 886.3 601L900 601L900 395L886.3 405C872.7 415 845.3 435 818 428C790.7 421 763.3 387 736.2 388C709 389 682 425 654.8 428C627.7 431 600.3 401 573 401C545.7 401 518.3 431 491 428C463.7 425 436.3 389 409 395C381.7 401 354.3 449 327 466C299.7 483 272.3 469 245.2 465C218 461 191 467 163.8 461C136.7 455 109.3 437 82 429C54.7 421 27.3 423 13.7 424L0 425Z" fill="#1b1818"></path></svg>