<svg version="1.1" id="Layer_1" xmlns="http://www.w3.org/2000/svg" xmlns:xlink="http://www.w3.org/1999/xlink" x="0px" y="0px"
	 width="100%" viewBox="0 0 320 100" enable-background="new 0 0 320 100" xml:space="preserve">
<path fill="#000000" opacity="1.000000" stroke="none" 
	d="
M219.000000,101.000000 
	C146.000015,101.000000 73.500046,101.000000 1.000049,101.000000 
	C1.000032,67.666695 1.000032,34.333397 1.000016,1.000071 
	C107.666603,1.000047 214.333206,1.000047 320.999878,1.000024 
	C320.999908,34.333260 320.999908,67.666519 320.999939,100.999893 
	C287.166656,101.000000 253.333328,101.000000 219.000000,101.000000 
M138.351898,28.879860 
	C138.351898,28.879860 137.985611,29.037024 137.252838,28.986183 
	C136.519241,28.961517 135.785629,28.936852 134.619598,28.149544 
	C122.604965,28.099752 110.590225,28.015417 98.575890,28.054836 
	C97.403931,28.058680 96.234467,28.825483 94.564796,29.019495 
	C94.385063,29.045563 94.205330,29.071632 93.377800,28.972242 
	C92.938469,28.979448 92.499130,28.986656 91.674644,28.196384 
	C79.410065,28.132275 67.145493,28.052599 54.880886,28.046318 
	C54.211128,28.045975 53.541054,28.657909 52.414558,29.057240 
	C52.127583,29.225065 51.959927,29.473433 51.291386,29.902887 
	C50.825428,29.582132 50.359474,29.261377 49.577824,28.131496 
	C37.502903,28.087975 25.427950,28.024761 13.353123,28.043339 
	C12.509487,28.044636 11.666784,28.652040 10.232334,28.918297 
	C9.815277,29.225327 9.398220,29.532354 8.220425,30.301579 
	C8.152470,42.571552 8.069009,54.841507 8.058249,67.111534 
	C8.057655,67.788757 8.660645,68.466515 8.943945,69.601562 
	C8.943945,69.601562 9.087790,70.037636 9.377357,70.863297 
	C37.009270,70.911217 64.641174,70.993362 92.273094,71.000374 
	C162.859497,71.018272 233.445953,70.971169 304.032196,71.082985 
	C308.042053,71.089333 309.194336,69.900620 309.103882,65.960823 
	C308.859406,55.311760 309.053680,44.653149 308.976654,33.999031 
	C308.967224,32.693653 308.365387,31.392551 307.502106,29.886358 
	C307.020142,29.588875 306.538177,29.291391 305.673340,28.195587 
	C293.738312,28.131956 281.803253,28.052261 269.868195,28.046768 
	C269.191071,28.046457 268.513641,28.654432 267.192413,28.946787 
	C265.849274,28.957865 264.506165,28.968943 262.706146,28.214674 
	C250.419891,28.144653 238.133652,28.058872 225.847336,28.046362 
	C225.158524,28.045660 224.469070,28.648951 223.184586,28.879139 
	C222.788620,28.925756 222.392654,28.972376 221.539719,28.933483 
	C221.539719,28.933483 221.077240,28.886206 220.614090,28.142639 
	C208.192917,28.095291 195.771744,28.028852 183.350632,28.042370 
	C182.497589,28.043299 181.645203,28.641958 180.125412,28.878418 
	C179.453094,28.876606 178.780777,28.874794 177.619766,28.144760 
	C165.520340,28.096735 153.420883,28.028883 141.321518,28.042677 
	C140.461014,28.043659 139.601196,28.644192 138.351898,28.879860 
z"/>
<path fill="#D9D9D9" opacity="1.000000" stroke="none" 
	d="
M308.038086,30.089466 
	C308.365387,31.392551 308.967224,32.693653 308.976654,33.999031 
	C309.053680,44.653149 308.859406,55.311760 309.103882,65.960823 
	C309.194336,69.900620 308.042053,71.089333 304.032196,71.082985 
	C233.445953,70.971169 162.859497,71.018272 92.273094,71.000374 
	C64.641174,70.993362 37.009270,70.911217 9.497935,70.359795 
	C10.077046,69.595482 10.535581,69.334671 11.463093,69.082626 
	C24.288385,69.099251 36.644699,69.107101 49.245743,69.351662 
	C50.992641,69.430634 52.494808,69.272903 54.465740,69.107224 
	C67.559448,69.032700 80.184395,68.966103 93.126839,68.991699 
	C93.884560,69.092705 94.324791,69.101532 94.955978,69.308800 
	C95.760017,69.378067 96.373093,69.248894 97.455574,69.111839 
	C109.957985,69.131813 121.990990,69.159660 134.262390,69.413048 
	C135.836288,69.110184 137.171753,68.581787 138.503235,68.029739 
	C138.499237,68.006088 138.527908,68.043198 138.887711,68.320526 
	C152.148376,68.719986 165.049225,68.842117 178.208466,69.126518 
	C179.327652,69.094284 180.188461,68.899780 181.502197,68.822556 
	C194.959610,68.952469 207.964066,68.965088 221.220947,69.124420 
	C222.048615,69.297867 222.623856,69.324600 223.430359,69.478699 
	C224.102890,69.442078 224.544144,69.278114 225.454849,69.105400 
	C238.283295,69.096390 250.642288,69.096123 263.249847,69.321754 
	C264.997284,69.385071 266.496185,69.222488 268.463928,69.070709 
	C281.290405,69.079376 293.647980,69.077240 306.269775,69.230331 
	C306.977478,67.746262 307.782166,66.112267 307.806274,64.466827 
	C307.974152,53.009037 307.980164,41.548870 308.038086,30.089466 
z"/>
<path fill="#989898" opacity="1.000000" stroke="none" 
	d="
M307.770081,29.987911 
	C307.980164,41.548870 307.974152,53.009037 307.806274,64.466827 
	C307.782166,66.112267 306.977478,67.746262 306.358398,68.762169 
	C306.262329,56.827644 306.446625,45.514786 306.262268,34.207935 
	C306.243469,33.055096 304.034698,30.985439 302.801819,30.954636 
	C292.322632,30.692804 281.831238,30.691893 271.351959,30.952055 
	C270.081360,30.983599 267.795013,33.014366 267.781342,34.140472 
	C267.639862,45.777695 267.869019,57.419430 267.995056,69.059906 
	C266.496185,69.222488 264.997284,69.385071 263.378967,68.922241 
	C263.401367,56.883533 263.633026,45.469501 263.540100,34.058117 
	C263.531250,32.970261 261.512970,30.984749 260.395294,30.961420 
	C249.298386,30.729778 238.194458,30.792450 227.093277,30.876020 
	C226.027206,30.884045 224.966431,31.594997 223.581268,31.995893 
	C222.615326,32.025093 221.971298,32.038036 221.191345,31.804096 
	C221.044632,31.369646 221.033829,31.182077 221.245087,30.803730 
	C221.643646,30.081633 221.820160,29.550312 221.996689,29.018993 
	C222.392654,28.972376 222.788620,28.925756 223.959137,29.008579 
	C237.543472,29.085352 250.353256,29.032686 263.163025,28.980019 
	C264.506165,28.968943 265.849274,28.957865 267.988892,29.037285 
	C281.208984,29.083160 293.632599,29.038540 306.056213,28.993914 
	C306.538177,29.291391 307.020142,29.588875 307.770081,29.987911 
z"/>
<path fill="#989898" opacity="1.000000" stroke="none" 
	d="
M10.994116,69.073860 
	C10.535581,69.334671 10.077046,69.595482 9.353151,69.946960 
	C9.087790,70.037636 8.943945,69.601562 9.009903,68.896790 
	C9.044295,55.407799 9.012729,42.623592 8.981163,29.839382 
	C9.398220,29.532354 9.815277,29.225327 11.003327,29.021946 
	C24.480719,29.063938 37.187119,29.002281 49.893517,28.940624 
	C50.359474,29.261377 50.825428,29.582132 51.783695,30.119617 
	C52.615879,30.597069 52.955757,30.857788 53.285870,31.578678 
	C53.260223,38.816654 53.140987,45.596287 53.260624,52.371700 
	C53.359215,57.955452 53.740803,63.534206 53.996975,69.115173 
	C52.494808,69.272903 50.992641,69.430634 49.393570,68.955711 
	C49.453094,56.849564 49.700150,45.375374 49.612301,33.903748 
	C49.604351,32.866089 47.457203,30.976690 46.272392,30.951611 
	C35.446430,30.722448 24.612095,30.739525 13.785033,30.942505 
	C12.700040,30.962845 10.725070,32.681782 10.719098,33.622280 
	C10.644079,45.438416 10.855788,57.256371 10.994116,69.073860 
z"/>
<path fill="#989898" opacity="1.000000" stroke="none" 
	d="
M181.049255,68.705276 
	C180.188461,68.899780 179.327652,69.094284 178.232086,68.660347 
	C177.986710,55.454735 177.976135,42.877575 177.963928,29.939816 
	C178.011047,29.343807 178.059753,29.108395 178.108459,28.872982 
	C178.780777,28.874794 179.453094,28.876606 180.721252,29.054361 
	C181.544540,29.533207 181.772018,29.836109 181.886536,30.529522 
	C181.572571,32.713337 181.212097,34.505268 181.196640,36.300167 
	C181.103577,47.101490 181.089676,57.903500 181.049255,68.705276 
z"/>
<path fill="#BABABA" opacity="1.000000" stroke="none" 
	d="
M94.765015,69.110359 
	C94.324791,69.101532 93.884560,69.092705 93.087082,68.531357 
	C92.719460,55.676327 92.709091,43.373825 92.960190,30.909134 
	C93.489632,30.197195 93.757622,29.647448 94.025604,29.097700 
	C94.205330,29.071632 94.385063,29.045563 94.845215,29.270329 
	C95.125641,29.521160 95.010773,29.787104 95.045769,30.092651 
	C95.328224,30.920603 95.575684,31.443007 95.881409,32.432930 
	C95.931786,44.605713 95.923904,56.310974 95.682457,68.147430 
	C95.220932,68.555870 94.992973,68.833115 94.765015,69.110359 
z"/>
<path fill="#969696" opacity="1.000000" stroke="none" 
	d="
M93.701706,29.034971 
	C93.757622,29.647448 93.489632,30.197195 92.514137,30.861099 
	C78.969627,31.023006 66.132629,31.070757 53.295631,31.118507 
	C52.955757,30.857788 52.615879,30.597069 52.093803,30.069347 
	C51.959927,29.473433 52.127583,29.225065 53.114487,29.099899 
	C66.562874,29.092997 79.311340,29.043430 92.059799,28.993864 
	C92.499130,28.986656 92.938469,28.979448 93.701706,29.034971 
z"/>
<path fill="#EEEEEE" opacity="1.000000" stroke="none" 
	d="
M95.010773,29.787104 
	C95.010773,29.787104 95.125641,29.521160 95.094742,29.379650 
	C96.234467,28.825483 97.403931,28.058680 98.575890,28.054836 
	C110.590225,28.015417 122.604965,28.099752 134.774353,28.818657 
	C134.935883,29.683840 134.942627,29.879908 134.484863,30.103523 
	C121.719887,30.129120 109.419441,30.127167 96.796310,29.950663 
	C95.986008,29.779776 95.498390,29.783440 95.010773,29.787104 
z"/>
<path fill="#EEEEEE" opacity="1.000000" stroke="none" 
	d="
M181.999481,30.139011 
	C181.772018,29.836109 181.544540,29.533207 181.054794,29.096474 
	C181.645203,28.641958 182.497589,28.043299 183.350632,28.042370 
	C195.771744,28.028852 208.192917,28.095291 220.765869,28.852180 
	C220.927002,29.792906 220.936371,30.024088 220.481842,30.220484 
	C207.345139,30.170135 194.672318,30.154575 181.999481,30.139011 
z"/>
<path fill="#BABABA" opacity="1.000000" stroke="none" 
	d="
M134.949387,30.075977 
	C134.942627,29.879908 134.935883,29.683840 134.990570,29.199978 
	C135.785629,28.936852 136.519241,28.961517 137.728577,29.317093 
	C138.423523,30.431055 138.642715,31.214108 138.896713,32.464806 
	C138.796982,44.636032 138.662445,56.339615 138.527908,68.043198 
	C138.527908,68.043198 138.499237,68.006088 138.134811,67.788849 
	C137.504440,65.817215 137.023682,64.064667 137.008575,62.308125 
	C136.930389,53.215801 137.081589,44.119827 136.865265,35.031975 
	C136.827881,33.461678 135.407959,31.924292 134.639313,30.223528 
	C134.651962,30.075352 134.949387,30.075977 134.949387,30.075977 
z"/>
<path fill="#EEEEEE" opacity="1.000000" stroke="none" 
	d="
M177.864105,28.508871 
	C178.059753,29.108395 178.011047,29.343807 177.500275,29.886967 
	C164.696243,30.203005 152.354279,30.211298 139.880249,29.943047 
	C139.412491,29.432985 139.076782,29.199465 138.741058,28.965944 
	C139.601196,28.644192 140.461014,28.043659 141.321518,28.042677 
	C153.420883,28.028883 165.520340,28.096735 177.864105,28.508871 
z"/>
<path fill="#EEEEEE" opacity="1.000000" stroke="none" 
	d="
M49.735672,28.536060 
	C37.187119,29.002281 24.480719,29.063938 11.298984,29.051596 
	C11.666784,28.652040 12.509487,28.044636 13.353123,28.043339 
	C25.427950,28.024761 37.502903,28.087975 49.735672,28.536060 
z"/>
<path fill="#EEEEEE" opacity="1.000000" stroke="none" 
	d="
M91.867218,28.595123 
	C79.311340,29.043430 66.562874,29.092997 53.342770,29.063700 
	C53.541054,28.657909 54.211128,28.045975 54.880886,28.046318 
	C67.145493,28.052599 79.410065,28.132275 91.867218,28.595123 
z"/>
<path fill="#EEEEEE" opacity="1.000000" stroke="none" 
	d="
M8.600794,30.070480 
	C9.012729,42.623592 9.044295,55.407799 9.029274,68.668015 
	C8.660645,68.466515 8.057655,67.788757 8.058249,67.111534 
	C8.069009,54.841507 8.152470,42.571552 8.600794,30.070480 
z"/>
<path fill="#EEEEEE" opacity="1.000000" stroke="none" 
	d="
M262.934570,28.597347 
	C250.353256,29.032686 237.543472,29.085352 224.256805,29.054569 
	C224.469070,28.648951 225.158524,28.045660 225.847336,28.046362 
	C238.133652,28.058872 250.419891,28.144653 262.934570,28.597347 
z"/>
<path fill="#EEEEEE" opacity="1.000000" stroke="none" 
	d="
M305.864777,28.594753 
	C293.632599,29.038540 281.208984,29.083160 268.310852,29.053541 
	C268.513641,28.654432 269.191071,28.046457 269.868195,28.046768 
	C281.803253,28.052261 293.738312,28.131956 305.864777,28.594753 
z"/>
<path fill="#878787" opacity="1.000000" stroke="none" 
	d="
M138.546478,28.922901 
	C139.076782,29.199465 139.412491,29.432985 139.895920,30.228754 
	C139.649719,31.193056 139.255814,31.595108 138.861908,31.997160 
	C138.642715,31.214108 138.423523,30.431055 138.094971,29.342514 
	C137.985611,29.037024 138.351898,28.879860 138.546478,28.922901 
z"/>
<path fill="#ADADAD" opacity="1.000000" stroke="none" 
	d="
M220.945724,30.255270 
	C220.936371,30.024088 220.927002,29.792906 220.997437,29.223965 
	C221.077240,28.886206 221.539719,28.933483 221.768204,28.976238 
	C221.820160,29.550312 221.643646,30.081633 221.117065,30.630280 
	C220.766998,30.647608 220.945724,30.255270 220.945724,30.255270 
z"/>
<path fill="#202020" opacity="1.000000" stroke="none" 
	d="
M53.285870,31.578678 
	C66.132629,31.070757 78.969627,31.023006 92.252670,31.023291 
	C92.709091,43.373825 92.719460,55.676327 92.769585,68.439171 
	C80.184395,68.966103 67.559448,69.032700 54.465740,69.107231 
	C53.740803,63.534206 53.359215,57.955452 53.260624,52.371700 
	C53.140987,45.596287 53.260223,38.816654 53.285870,31.578678 
M64.346909,40.424622 
	C66.276306,46.615768 72.217781,51.340103 71.044678,58.723541 
	C70.980942,59.124683 72.410934,59.763153 73.145615,60.291153 
	C73.815483,59.299328 74.779922,58.393467 75.099228,57.299335 
	C76.007103,54.188431 76.395203,50.909134 77.479355,47.871525 
	C78.385307,45.333199 79.984657,43.042362 81.469223,40.284775 
	C75.204033,38.616920 75.690079,45.057152 72.188469,46.979538 
	C71.135818,45.064220 70.418610,42.936005 69.010063,41.473736 
	C68.001129,40.426331 66.066513,40.270607 64.346909,40.424622 
z"/>
<path fill="#1D1D1D" opacity="1.000000" stroke="none" 
	d="
M138.896713,32.464806 
	C139.255814,31.595108 139.649719,31.193056 140.027954,30.505297 
	C152.354279,30.211298 164.696243,30.203005 177.501892,30.247562 
	C177.976135,42.877575 177.986710,55.454735 177.973694,68.498070 
	C165.049225,68.842117 152.148376,68.719986 138.887711,68.320526 
	C138.662445,56.339615 138.796982,44.636032 138.896713,32.464806 
M160.568298,58.421848 
	C160.603333,53.595963 160.638382,48.770077 161.252304,43.689018 
	C161.479263,43.343266 161.706223,42.997509 162.651810,42.686352 
	C163.365250,42.622620 164.078674,42.558887 165.425400,42.756214 
	C168.922012,40.928066 167.754868,38.805279 165.005753,38.382427 
	C160.832748,37.740570 156.485535,38.088562 152.224777,38.285656 
	C151.411407,38.323280 150.655792,39.609013 149.873535,40.318916 
	C150.651657,41.041210 151.429779,41.763504 152.908615,42.639126 
	C153.625626,42.648098 154.342636,42.657070 155.252899,43.243935 
	C155.571671,43.483604 155.890427,43.723278 156.161179,44.897236 
	C156.248215,49.535290 156.335251,54.173344 156.279861,59.481247 
	C157.745209,61.455345 159.098480,61.806892 160.568298,58.421848 
z"/>
<path fill="#202020" opacity="1.000000" stroke="none" 
	d="
M223.903198,31.979631 
	C224.966431,31.594997 226.027206,30.884045 227.093277,30.876020 
	C238.194458,30.792450 249.298386,30.729778 260.395294,30.961420 
	C261.512970,30.984749 263.531250,32.970261 263.540100,34.058117 
	C263.633026,45.469501 263.401367,56.883533 263.130371,68.696342 
	C250.642288,69.096123 238.283295,69.096390 225.380493,68.854706 
	C224.559570,68.407944 224.282471,68.203125 224.039368,67.530762 
	C224.016647,55.368687 223.959930,43.674160 223.903198,31.979631 
M241.726257,55.528347 
	C243.536011,55.429558 245.345779,55.330765 247.715668,55.760487 
	C248.136246,56.457661 248.428513,57.296558 249.006500,57.819881 
	C249.951065,58.675102 251.081757,59.324764 252.133926,60.061157 
	C252.189346,58.796783 252.622543,57.401085 252.236359,56.290222 
	C250.318344,50.772926 248.184387,45.330692 245.897293,39.240891 
	C242.783524,37.450558 241.281601,38.674965 240.490662,42.533195 
	C239.140686,45.921928 237.554962,49.240967 236.525162,52.724354 
	C235.858780,54.978500 236.005432,57.473019 235.787766,59.859825 
	C237.474274,58.332249 239.160797,56.804672 241.726257,55.528347 
z"/>
<path fill="#202020" opacity="1.000000" stroke="none" 
	d="
M220.481842,30.220484 
	C220.945724,30.255270 220.766998,30.647608 220.895020,30.821058 
	C221.033829,31.182077 221.044632,31.369646 221.114517,32.263603 
	C221.105240,44.972569 221.036880,56.975140 220.968521,68.977715 
	C207.964066,68.965088 194.959610,68.952469 181.502197,68.822556 
	C181.089676,57.903500 181.103577,47.101490 181.196640,36.300167 
	C181.212097,34.505268 181.572571,32.713337 181.886536,30.529524 
	C194.672318,30.154575 207.345139,30.170135 220.481842,30.220484 
M194.843201,59.930531 
	C197.486069,61.642582 198.690552,60.945179 198.560028,56.979969 
	C198.736328,55.624859 198.912628,54.269749 199.217880,51.923496 
	C202.420547,55.467194 204.924911,58.238232 207.429276,61.009274 
	C208.001953,60.699940 208.574646,60.390610 209.147324,60.081276 
	C208.463760,58.495705 207.633957,56.954281 207.138138,55.312023 
	C206.651459,53.699944 206.135803,51.950420 206.290176,50.323586 
	C206.553955,47.543823 207.331085,44.812775 207.781708,41.341801 
	C205.026535,37.018448 200.653534,38.204369 196.729034,38.340561 
	C195.942062,38.367874 195.217377,40.190247 194.322464,42.084209 
	C194.459244,47.803070 194.596008,53.521935 194.843201,59.930531 
z"/>
<path fill="#202020" opacity="1.000000" stroke="none" 
	d="
M11.463095,69.082626 
	C10.855788,57.256371 10.644079,45.438416 10.719098,33.622280 
	C10.725070,32.681782 12.700040,30.962845 13.785033,30.942505 
	C24.612095,30.739525 35.446430,30.722448 46.272392,30.951611 
	C47.457203,30.976690 49.604351,32.866089 49.612301,33.903748 
	C49.700150,45.375374 49.453094,56.849564 49.148838,68.719009 
	C36.644699,69.107101 24.288385,69.099251 11.463095,69.082626 
M34.624725,39.290604 
	C33.853882,38.987621 33.106419,38.525940 32.308262,38.408348 
	C28.231588,37.807751 24.869751,38.880444 23.726536,43.229939 
	C22.638874,47.368080 24.746075,49.890152 28.639704,51.131142 
	C29.431229,51.383415 30.377672,51.519302 30.935175,52.045353 
	C31.681623,52.749687 32.796192,54.194862 32.554348,54.591774 
	C31.960701,55.566090 30.736290,56.594360 29.662245,56.720463 
	C28.471806,56.860241 27.188070,55.819656 25.903458,55.682892 
	C25.088388,55.596123 23.754299,56.000141 23.462976,56.586494 
	C23.159435,57.197445 23.666677,58.961182 24.099508,59.066174 
	C26.885607,59.741959 30.007742,60.997192 32.502747,60.275497 
	C34.436928,59.716030 36.676640,56.635063 36.834122,54.529362 
	C36.987900,52.473152 34.929993,50.019611 33.365013,48.138054 
	C32.044712,46.550671 30.039289,45.533134 28.337120,44.263371 
	C30.603579,43.914944 32.870037,43.566517 35.725166,43.126060 
	C35.534271,42.014297 35.343376,40.902531 34.624725,39.290604 
z"/>
<path fill="#222222" opacity="1.000000" stroke="none" 
	d="
M97.119003,30.125214 
	C109.419441,30.127167 121.719887,30.129120 134.484863,30.103523 
	C134.949387,30.075977 134.651962,30.075352 134.755066,30.653219 
	C134.965729,42.815010 135.104263,54.398869 135.129196,65.982971 
	C135.131500,67.050354 134.409607,68.119293 134.023987,69.187515 
	C121.990990,69.159660 109.957985,69.131813 97.364273,68.856827 
	C96.507721,68.411880 96.211868,68.214058 95.916023,68.016235 
	C95.923904,56.310974 95.931786,44.605713 96.122276,32.262722 
	C96.576256,31.125067 96.847633,30.625141 97.119003,30.125214 
M117.925056,55.813934 
	C118.286530,56.207584 118.648003,56.601234 119.045601,57.693981 
	C120.422295,58.634922 121.798988,59.575863 123.175674,60.516800 
	C123.768616,58.946907 124.795364,57.397964 124.872398,55.803150 
	C125.095016,51.194424 125.084343,46.558449 124.813354,41.953888 
	C124.751167,40.897301 123.277428,39.923786 122.453308,38.912041 
	C121.758789,39.889690 120.586044,40.811825 120.464821,41.856026 
	C120.171867,44.379574 120.369759,46.960098 120.369759,50.263771 
	C118.750870,49.334541 118.079613,48.949245 117.208458,47.934494 
	C115.922028,46.499172 114.635597,45.063850 113.209129,43.275246 
	C113.209129,43.275246 112.911713,43.038681 112.886436,42.317886 
	C111.421555,41.168552 109.956665,40.019218 108.491776,38.869884 
	C107.813690,40.565155 106.647232,42.233479 106.551918,43.960903 
	C106.297462,48.572483 106.379738,53.216072 106.626862,57.830948 
	C106.678421,58.793697 108.015228,59.687626 108.759743,60.613266 
	C109.480843,59.666016 110.714424,58.774143 110.823936,57.760799 
	C111.115532,55.062534 110.923058,52.311966 110.923058,48.751457 
	C112.697990,50.109653 113.583221,50.787045 114.677673,52.076939 
	C115.691902,53.156193 116.706139,54.235447 117.925056,55.813934 
z"/>
<path fill="#222222" opacity="1.000000" stroke="none" 
	d="
M268.463928,69.070709 
	C267.869019,57.419430 267.639862,45.777695 267.781342,34.140472 
	C267.795013,33.014366 270.081360,30.983599 271.351959,30.952055 
	C281.831238,30.691893 292.322632,30.692804 302.801819,30.954636 
	C304.034698,30.985439 306.243469,33.055096 306.262268,34.207935 
	C306.446625,45.514786 306.262329,56.827644 306.094177,68.606949 
	C293.647980,69.077240 281.290405,69.079376 268.463928,69.070709 
M287.361298,45.128338 
	C285.246429,43.064232 283.131561,41.000126 280.622192,38.554043 
	C279.998291,39.002708 279.374420,39.451374 278.598877,40.671227 
	C278.882812,41.444843 278.965607,42.404945 279.482544,42.962513 
	C283.543793,47.343056 283.611359,51.642906 279.451202,55.974358 
	C279.224396,56.210506 278.943024,56.517052 278.922852,56.807240 
	C278.840820,57.986557 278.850769,59.172276 278.826813,60.355640 
	C280.013794,60.026741 281.553589,60.052376 282.314484,59.295254 
	C283.907471,57.710117 285.090179,55.712643 286.856628,53.322693 
	C288.212494,55.288120 289.004028,56.981064 290.283539,58.131107 
	C291.474731,59.201748 293.185516,59.694336 294.667542,60.441395 
	C294.464050,58.859840 294.826355,56.793953 293.958984,55.780724 
	C290.242493,51.439320 289.744965,47.432911 294.027649,43.233532 
	C294.567505,42.704159 294.693451,41.752678 295.159515,40.212524 
	C292.171448,37.081680 290.955109,39.313080 289.662201,42.137970 
	C289.662201,42.137970 289.628693,42.414791 289.070465,42.743256 
	C288.661469,43.478344 288.252472,44.213428 287.361298,45.128338 
z"/>
<path fill="#ADADAD" opacity="1.000000" stroke="none" 
	d="
M221.220947,69.124420 
	C221.036880,56.975140 221.105240,44.972569 221.250427,32.510483 
	C221.971298,32.038036 222.615326,32.025093 223.581284,31.995892 
	C223.959930,43.674160 224.016647,55.368687 223.852112,67.638657 
	C223.486923,68.593185 223.343002,68.972260 223.199081,69.351341 
	C222.623856,69.324600 222.048615,69.297867 221.220947,69.124420 
z"/>
<path fill="#969696" opacity="1.000000" stroke="none" 
	d="
M134.262390,69.413048 
	C134.409607,68.119293 135.131500,67.050354 135.129196,65.982971 
	C135.104263,54.398869 134.965729,42.815010 134.742416,30.801395 
	C135.407959,31.924292 136.827881,33.461678 136.865265,35.031975 
	C137.081589,44.119827 136.930389,53.215801 137.008575,62.308125 
	C137.023682,64.064667 137.504440,65.817215 138.138809,67.812492 
	C137.171753,68.581787 135.836288,69.110184 134.262390,69.413048 
z"/>
<path fill="#969696" opacity="1.000000" stroke="none" 
	d="
M95.682457,68.147430 
	C96.211868,68.214058 96.507721,68.411880 96.894867,68.864716 
	C96.373093,69.248894 95.760017,69.378067 94.955978,69.308800 
	C94.992973,68.833115 95.220932,68.555870 95.682457,68.147430 
z"/>
<path fill="#989898" opacity="1.000000" stroke="none" 
	d="
M223.430359,69.478699 
	C223.343002,68.972260 223.486923,68.593185 223.818100,68.106201 
	C224.282471,68.203125 224.559570,68.407944 224.911041,68.863449 
	C224.544144,69.278114 224.102890,69.442078 223.430359,69.478699 
z"/>
<path fill="#969696" opacity="1.000000" stroke="none" 
	d="
M96.796310,29.950663 
	C96.847633,30.625141 96.576256,31.125067 96.064011,31.795200 
	C95.575684,31.443007 95.328224,30.920603 95.045769,30.092651 
	C95.498390,29.783440 95.986008,29.779776 96.796310,29.950663 
z"/>
<path fill="#B5B5B5" opacity="1.000000" stroke="none" 
	d="
M64.445908,40.070835 
	C66.066513,40.270607 68.001129,40.426331 69.010063,41.473736 
	C70.418610,42.936005 71.135818,45.064220 72.188469,46.979538 
	C75.690079,45.057152 75.204033,38.616920 81.469223,40.284775 
	C79.984657,43.042362 78.385307,45.333199 77.479355,47.871525 
	C76.395203,50.909134 76.007103,54.188431 75.099228,57.299335 
	C74.779922,58.393467 73.815483,59.299328 73.145615,60.291153 
	C72.410934,59.763153 70.980942,59.124683 71.044678,58.723541 
	C72.217781,51.340103 66.276306,46.615768 64.445908,40.070835 
z"/>
<path fill="#BFBFBF" opacity="1.000000" stroke="none" 
	d="
M164.792114,42.495155 
	C164.078674,42.558887 163.365250,42.622620 162.134018,42.486729 
	C161.301956,42.839470 160.987686,43.391830 160.673431,43.944191 
	C160.638382,48.770077 160.603333,53.595963 160.024384,58.763214 
	C158.461075,59.006851 157.441681,58.909126 156.422287,58.811398 
	C156.335251,54.173344 156.248215,49.535290 156.377289,44.285294 
	C156.082153,43.337578 155.570908,43.001808 155.059647,42.666039 
	C154.342636,42.657070 153.625626,42.648098 152.490723,42.254948 
	C152.297546,41.237141 152.503098,40.060387 152.749847,40.051685 
	C156.228485,39.928989 159.720398,39.848396 163.188126,40.076511 
	C163.773285,40.115002 164.259933,41.651035 164.792114,42.495155 
z"/>
<path fill="#878787" opacity="1.000000" stroke="none" 
	d="
M165.108765,42.625687 
	C164.259933,41.651035 163.773285,40.115002 163.188126,40.076511 
	C159.720398,39.848396 156.228485,39.928989 152.749847,40.051685 
	C152.503098,40.060387 152.297546,41.237141 152.140381,42.178284 
	C151.429779,41.763504 150.651657,41.041210 149.873535,40.318913 
	C150.655792,39.609013 151.411407,38.323280 152.224777,38.285656 
	C156.485535,38.088562 160.832748,37.740570 165.005753,38.382427 
	C167.754868,38.805279 168.922012,40.928066 165.108765,42.625687 
z"/>
<path fill="#878787" opacity="1.000000" stroke="none" 
	d="
M156.351074,59.146324 
	C157.441681,58.909126 158.461075,59.006851 159.864197,59.155880 
	C159.098480,61.806892 157.745209,61.455345 156.351074,59.146324 
z"/>
<path fill="#878787" opacity="1.000000" stroke="none" 
	d="
M155.156281,42.954987 
	C155.570908,43.001808 156.082153,43.337578 156.401306,43.818150 
	C155.890427,43.723278 155.571671,43.483604 155.156281,42.954987 
z"/>
<path fill="#878787" opacity="1.000000" stroke="none" 
	d="
M160.962860,43.816605 
	C160.987686,43.391830 161.301956,42.839470 161.774704,42.469429 
	C161.706223,42.997509 161.479263,43.343266 160.962860,43.816605 
z"/>
<path fill="#B5B5B5" opacity="1.000000" stroke="none" 
	d="
M246.126480,39.862019 
	C248.184387,45.330692 250.318344,50.772926 252.236359,56.290222 
	C252.622543,57.401085 252.189346,58.796783 252.133911,60.061153 
	C251.081757,59.324764 249.951065,58.675102 249.006500,57.819881 
	C248.428513,57.296558 248.136246,56.457661 247.243454,55.243179 
	C244.796600,54.909615 242.821945,55.093357 240.847305,55.277096 
	C239.160797,56.804672 237.474274,58.332249 235.787766,59.859825 
	C236.005432,57.473019 235.858780,54.978500 236.525162,52.724354 
	C237.554962,49.240967 239.140686,45.921928 241.057755,42.262421 
	C243.125381,41.281773 244.625931,40.571896 246.126480,39.862019 
z"/>
<path fill="#8E8E8E" opacity="1.000000" stroke="none" 
	d="
M246.011887,39.551453 
	C244.625931,40.571896 243.125381,41.281773 241.245346,41.961304 
	C241.281601,38.674965 242.783524,37.450558 246.011887,39.551453 
z"/>
<path fill="#8E8E8E" opacity="1.000000" stroke="none" 
	d="
M241.286774,55.402721 
	C242.821945,55.093357 244.796600,54.909615 246.963379,54.978924 
	C245.345779,55.330765 243.536011,55.429558 241.286774,55.402721 
z"/>
<path fill="#BFBFBF" opacity="1.000000" stroke="none" 
	d="
M207.892609,42.061268 
	C207.331085,44.812775 206.553955,47.543823 206.290176,50.323586 
	C206.135803,51.950420 206.651459,53.699944 207.138138,55.312023 
	C207.633957,56.954281 208.463760,58.495705 209.147324,60.081276 
	C208.574646,60.390610 208.001953,60.699940 207.429276,61.009274 
	C204.924911,58.238232 202.420547,55.467194 199.217880,51.923496 
	C198.912628,54.269749 198.736328,55.624859 198.190765,57.520439 
	C196.791916,58.454205 195.762360,58.847500 194.732788,59.240795 
	C194.596008,53.521935 194.459244,47.803070 194.748962,41.487244 
	C199.636246,38.872524 203.830582,39.748482 207.892609,42.061268 
M197.882645,44.645630 
	C198.759827,46.256260 199.637024,47.866890 200.514206,49.477520 
	C202.010178,48.417942 204.184509,47.638649 204.776642,46.205608 
	C205.210739,45.154964 203.962387,42.683903 202.764404,41.845997 
	C200.724045,40.418919 198.647293,40.969971 197.882645,44.645630 
z"/>
<path fill="#878787" opacity="1.000000" stroke="none" 
	d="
M207.837158,41.701534 
	C203.830582,39.748482 199.636246,38.872524 194.819733,41.037613 
	C195.217377,40.190247 195.942062,38.367874 196.729034,38.340561 
	C200.653534,38.204369 205.026535,37.018448 207.837158,41.701534 
z"/>
<path fill="#878787" opacity="1.000000" stroke="none" 
	d="
M194.787994,59.585663 
	C195.762360,58.847500 196.791916,58.454205 198.124802,57.925682 
	C198.690552,60.945179 197.486069,61.642582 194.787994,59.585663 
z"/>
<path fill="#ADADAD" opacity="1.000000" stroke="none" 
	d="
M35.136497,43.218090 
	C32.870037,43.566517 30.603579,43.914944 28.337120,44.263371 
	C30.039289,45.533134 32.044712,46.550671 33.365013,48.138054 
	C34.929993,50.019611 36.987900,52.473152 36.834122,54.529362 
	C36.676640,56.635063 34.436928,59.716030 32.502747,60.275497 
	C30.007742,60.997192 26.885607,59.741959 24.099508,59.066174 
	C23.666677,58.961182 23.159435,57.197445 23.462976,56.586494 
	C23.754299,56.000141 25.088388,55.596123 25.903458,55.682892 
	C27.188070,55.819656 28.471806,56.860241 29.662245,56.720463 
	C30.736290,56.594360 31.960701,55.566090 32.554348,54.591774 
	C32.796192,54.194862 31.681623,52.749687 30.935175,52.045353 
	C30.377672,51.519302 29.431229,51.383415 28.639704,51.131142 
	C24.746075,49.890152 22.638874,47.368080 23.726536,43.229939 
	C24.869751,38.880444 28.231588,37.807751 32.308262,38.408348 
	C33.106419,38.525940 33.853882,38.987621 34.854424,39.968220 
	C35.101582,41.503254 35.119041,42.360672 35.136497,43.218090 
z"/>
<path fill="#878787" opacity="1.000000" stroke="none" 
	d="
M35.430832,43.172073 
	C35.119041,42.360672 35.101582,41.503254 35.118301,40.218300 
	C35.343376,40.902531 35.534271,42.014297 35.430832,43.172073 
z"/>
<path fill="#9E9E9E" opacity="1.000000" stroke="none" 
	d="
M114.468460,51.464439 
	C113.583221,50.787045 112.697990,50.109653 110.923058,48.751457 
	C110.923058,52.311966 111.115532,55.062534 110.823936,57.760799 
	C110.714424,58.774143 109.480843,59.666016 108.759743,60.613266 
	C108.015228,59.687626 106.678421,58.793697 106.626862,57.830948 
	C106.379738,53.216072 106.297462,48.572483 106.551918,43.960903 
	C106.647232,42.233479 107.813690,40.565155 108.491776,38.869881 
	C109.956665,40.019218 111.421555,41.168552 112.542374,42.641891 
	C111.004410,42.398525 109.810509,41.831154 108.310211,41.118172 
	C108.310211,46.797684 108.310211,51.766026 108.310211,56.734367 
	C109.639717,52.155724 107.476425,46.444637 113.349174,43.628529 
	C114.635597,45.063850 115.922028,46.499172 117.157860,48.406044 
	C117.107262,48.877598 116.807014,49.190212 116.513977,49.167160 
	C115.855659,49.721653 115.490364,50.299202 114.960663,51.023384 
	C114.796249,51.170017 114.468460,51.464439 114.468460,51.464439 
z"/>
<path fill="#9E9E9E" opacity="1.000000" stroke="none" 
	d="
M117.720375,55.314705 
	C116.706139,54.235447 115.691902,53.156193 114.573067,51.770691 
	C114.468460,51.464439 114.796249,51.170017 115.255020,51.041336 
	C116.078201,50.338505 116.442604,49.764359 116.807014,49.190212 
	C116.807014,49.190212 117.107262,48.877598 117.257812,48.720772 
	C118.079613,48.949245 118.750870,49.334541 120.369759,50.263771 
	C120.369759,46.960098 120.171867,44.379574 120.464821,41.856026 
	C120.586044,40.811825 121.758789,39.889690 122.453308,38.912041 
	C123.277428,39.923786 124.751167,40.897301 124.813354,41.953888 
	C125.084343,46.558449 125.095016,51.194424 124.872398,55.803150 
	C124.795364,57.397964 123.768616,58.946907 123.175674,60.516800 
	C121.798988,59.575863 120.422295,58.634922 119.406860,57.387672 
	C120.863213,56.736057 122.890907,56.437046 122.910690,56.038353 
	C123.135498,51.510113 123.053391,46.966629 123.053391,42.427227 
	C121.342209,46.953979 123.894814,52.689285 117.720375,55.314705 
z"/>
<path fill="#CDCDCD" opacity="1.000000" stroke="none" 
	d="
M113.279152,43.451889 
	C107.476425,46.444637 109.639717,52.155724 108.310211,56.734367 
	C108.310211,51.766026 108.310211,46.797684 108.310211,41.118172 
	C109.810509,41.831154 111.004410,42.398525 112.555008,43.002289 
	C112.911713,43.038681 113.209129,43.275246 113.279152,43.451889 
z"/>
<path fill="#CDCDCD" opacity="1.000000" stroke="none" 
	d="
M117.822716,55.564316 
	C123.894814,52.689285 121.342209,46.953979 123.053391,42.427227 
	C123.053391,46.966629 123.135498,51.510113 122.910690,56.038353 
	C122.890907,56.437046 120.863213,56.736057 119.388802,57.038124 
	C118.648003,56.601234 118.286530,56.207584 117.822716,55.564316 
z"/>
<path fill="#A6A6A6" opacity="1.000000" stroke="none" 
	d="
M281.016693,38.936020 
	C283.131561,41.000126 285.246429,43.064232 287.971985,44.986454 
	C288.931335,44.034641 289.279999,43.224712 289.628662,42.414787 
	C289.628693,42.414791 289.662201,42.137970 290.145142,42.025116 
	C292.089142,41.607098 293.550140,41.301933 295.011169,40.996765 
	C294.693451,41.752678 294.567505,42.704159 294.027649,43.233532 
	C289.744965,47.432911 290.242493,51.439320 293.958984,55.780724 
	C294.826355,56.793953 294.464050,58.859840 294.667542,60.441395 
	C293.185516,59.694336 291.474731,59.201748 290.283539,58.131107 
	C289.004028,56.981064 288.212494,55.288120 286.856628,53.322693 
	C285.090179,55.712643 283.907471,57.710117 282.314484,59.295254 
	C281.553589,60.052376 280.013794,60.026741 278.826843,60.355637 
	C278.850769,59.172276 278.840820,57.986557 278.922852,56.807240 
	C278.943024,56.517052 279.224396,56.210506 279.451202,55.974358 
	C283.611359,51.642906 283.543793,47.343056 279.482544,42.962513 
	C278.965607,42.404945 278.882812,41.444843 279.002319,40.287849 
	C279.942749,39.581654 280.479706,39.258835 281.016693,38.936020 
M287.558075,49.497185 
	C287.558075,49.497185 287.501801,49.521938 287.558075,49.497185 
z"/>
<path fill="#8E8E8E" opacity="1.000000" stroke="none" 
	d="
M295.085327,40.604645 
	C293.550140,41.301933 292.089142,41.607098 290.251831,41.935318 
	C290.955109,39.313080 292.171448,37.081680 295.085327,40.604645 
z"/>
<path fill="#8E8E8E" opacity="1.000000" stroke="none" 
	d="
M289.349548,42.579018 
	C289.279999,43.224712 288.931335,44.034641 288.213074,44.896542 
	C288.252472,44.213428 288.661469,43.478344 289.349548,42.579018 
z"/>
<path fill="#8E8E8E" opacity="1.000000" stroke="none" 
	d="
M280.819458,38.745029 
	C280.479706,39.258835 279.942749,39.581654 279.078125,39.902260 
	C279.374420,39.451374 279.998291,39.002708 280.819458,38.745029 
z"/>
<path fill="#878787" opacity="1.000000" stroke="none" 
	d="
M197.912155,44.241020 
	C198.647293,40.969971 200.724045,40.418919 202.764404,41.845997 
	C203.962387,42.683903 205.210739,45.154964 204.776642,46.205608 
	C204.184509,47.638649 202.010178,48.417942 200.514206,49.477520 
	C199.637024,47.866890 198.759827,46.256260 197.912155,44.241020 
z"/>
<path fill="#CDCDCD" opacity="1.000000" stroke="none" 
	d="
M116.513977,49.167160 
	C116.442604,49.764359 116.078201,50.338505 115.419434,50.894699 
	C115.490364,50.299202 115.855659,49.721653 116.513977,49.167160 
z"/>
<path fill="#8E8E8E" opacity="1.000000" stroke="none" 
	d="
M287.529938,49.509560 
	C287.501801,49.521938 287.558075,49.497185 287.529938,49.509560 
z"/>
</svg>