<svg xmlns="http://www.w3.org/2000/svg" viewBox="0 0 320 100"><defs><style>.cls-1,.cls-2{fill:#fff;}.cls-2,.cls-3{font-size:30px;font-family:PressStart2P-Regular, "Press Start 2P";}.cls-3{fill:#ed1c24;}</style></defs><g id="Layer_3" data-name="Layer 3"><path class="cls-1" d="M304.93,27.37H9.33A4.47,4.47,0,0,1,7,29.83v3.5H307.89v-3A4.53,4.53,0,0,1,304.93,27.37Z"/><path class="cls-1" d="M7,65.29V68A4.48,4.48,0,0,1,9.6,70.41h296a4.61,4.61,0,0,1,2.4-2.9V65.29Z"/><path class="cls-1" d="M9.33,27.37A4.47,4.47,0,0,1,7,29.83v38h5.51V27.37Z"/><path class="cls-1" d="M307.89,67.57V30.37a4.53,4.53,0,0,1-3-3h-2.65V69.88h3.52A4.52,4.52,0,0,1,307.89,67.57Z"/></g><g id="Layer_4" data-name="Layer 4"><rect class="cls-1" x="48.49" y="27.46" width="5.39" height="42.82"/><rect class="cls-1" x="90.58" y="27.52" width="5.06" height="42.89"/><rect class="cls-1" x="133.53" y="27.48" width="5.31" height="42.81"/><rect class="cls-1" x="176.53" y="27.47" width="5.15" height="42.81"/><rect class="cls-1" x="219.52" y="27.47" width="5.36" height="42.81"/><rect class="cls-1" x="261.62" y="27.54" width="5.38" height="42.74"/></g><g id="Layer_5" data-name="Layer 5"><text class="cls-2" transform="translate(17.87 65.89)">S</text><text class="cls-2" transform="translate(56.41 66.52)">Y</text><text/><text class="cls-2" transform="translate(100.68 66.52)">N</text><text class="cls-2" transform="translate(142.59 66.52)">T</text><text class="cls-2" transform="translate(187.04 66.52)">R</text><text class="cls-2" transform="translate(230.26 65.89)">A</text><text class="cls-3" transform="translate(270.52 66.11)">X</text></g></svg>