<svg xmlns="http://www.w3.org/2000/svg" viewBox="0 0 320 100"><defs><style>.cls-1,.cls-2{fill:#010101;}.cls-1{opacity:0.2;}.cls-2{opacity:0.5;}.cls-3,.cls-4{fill:#fff;}.cls-4{font-size:27px;font-family:PressStart2P-Regular, "Press Start 2P";}</style></defs><g id="Layer_2" data-name="Layer 2"><path class="cls-1" d="M217.91,100.327H-.09V.327h320v100h-102m-80.648-72.12a2.579,2.579,0,0,1-1.1.106,4.258,4.258,0,0,1-2.633-.837c-12.015-.049-24.029-.134-36.044-.094-1.172,0-2.341.77-4.011.964a3.922,3.922,0,0,1-1.187-.047,2.03,2.03,0,0,1-1.7-.776c-12.265-.064-24.529-.143-36.794-.15-.67,0-1.34.612-2.466,1.011-.287.168-.455.416-1.123.846a5.754,5.754,0,0,1-1.714-1.772c-12.075-.043-24.15-.106-36.225-.088-.843,0-1.686.609-3.12.875-.417.307-.835.614-2.012,1.383-.068,12.27-.152,24.54-.162,36.81,0,.678.6,1.355.885,2.49,0,0,.144.437.434,1.262q41.448.072,82.9.137,105.881.027,211.759.083c4.01.006,5.163-1.182,5.072-5.122-.244-10.649-.05-21.308-.127-31.962a8.718,8.718,0,0,0-1.475-4.113,6,6,0,0,1-1.828-1.691c-11.935-.063-23.87-.143-35.806-.148-.677,0-1.354.607-2.675.9a10.15,10.15,0,0,1-4.487-.732c-12.286-.07-24.572-.156-36.858-.169-.689,0-1.379.6-2.663.833a8.583,8.583,0,0,1-1.645.054s-.462-.047-.926-.79c-12.421-.048-24.842-.114-37.263-.1-.853,0-1.706.6-3.225.836a4,4,0,0,1-2.506-.733c-12.1-.048-24.2-.116-36.3-.1C139.371,27.371,138.511,27.971,137.262,28.207Z"/></g><g id="Layer_1" data-name="Layer 1"><rect class="cls-2" x="-0.09" y="0.327" width="320" height="99.673"/></g><g id="Layer_3" data-name="Layer 3"><path class="cls-3" d="M304.931,27.367H9.332a4.493,4.493,0,0,1-2.363,2.468v3.491H307.887v-2.96A4.514,4.514,0,0,1,304.931,27.367Z"/><path class="cls-3" d="M6.969,65.288v2.737A4.435,4.435,0,0,1,9.6,70.41H305.612a4.6,4.6,0,0,1,2.4-2.9v-2.22Z"/><path class="cls-3" d="M9.332,27.367a4.493,4.493,0,0,1-2.363,2.468V67.849H12.48V27.367Z"/><path class="cls-3" d="M307.887,67.575V30.366a4.514,4.514,0,0,1-2.956-3H302.28V69.88H305.8A4.511,4.511,0,0,1,307.887,67.575Z"/></g><g id="Layer_4" data-name="Layer 4"><rect class="cls-3" x="48.488" y="27.458" width="5.39" height="42.824"/><rect class="cls-3" x="90.585" y="27.523" width="5.055" height="42.887"/><rect class="cls-3" x="133.53" y="27.476" width="5.31" height="42.806"/><rect class="cls-3" x="176.53" y="27.472" width="5.15" height="42.81"/><rect class="cls-3" x="219.524" y="27.47" width="5.356" height="42.813"/><rect class="cls-3" x="261.616" y="27.542" width="5.384" height="42.741"/></g><g id="Layer_5" data-name="Layer 5"><text class="cls-4" transform="translate(17.87 63.937)">S</text><text class="cls-4" transform="translate(58.933 63.937)">Y</text><text/><text class="cls-4" transform="translate(102.84 63.524)">N</text><text class="cls-4" transform="translate(144.093 63.937)">T</text><text class="cls-4" transform="translate(187.035 63.524)">R</text><text class="cls-4" transform="translate(230.263 62.887)">A</text><text class="cls-4" transform="translate(270.523 63.524)">X</text></g></svg>