<svg xmlns="http://www.w3.org/2000/svg" viewBox="0 0 320 100"><defs><style>.cls-1,.cls-2{fill:#010101;}.cls-1{opacity:0.2;}.cls-2{opacity:0.5;}.cls-3,.cls-4{fill:#fff;}.cls-4,.cls-5{font-size:27px;font-family:PressStart2P-Regular, "Press Start 2P";}.cls-5{fill:#ed1c24;}</style></defs><g id="Layer_2" data-name="Layer 2"><path class="cls-1" d="M217.91,100.33H-.09V.33h320v100h-102M137.26,28.21a2.66,2.66,0,0,1-1.1.1,4.27,4.27,0,0,1-2.63-.83c-12-.05-24-.14-36-.1-1.18,0-2.35.77-4,1a4.26,4.26,0,0,1-1.19-.05,2,2,0,0,1-1.71-.78c-12.26-.06-24.52-.14-36.79-.15-.67,0-1.34.61-2.47,1-.28.17-.45.42-1.12.85a5.77,5.77,0,0,1-1.71-1.77c-12.08-.05-24.15-.11-36.23-.09-.84,0-1.68.61-3.12.88-.41.3-.83.61-2,1.38C7.06,41.9,7,54.17,7,66.44c0,.68.6,1.35.88,2.49l.44,1.26q41.45.07,82.89.14,105.89,0,211.76.08c4,0,5.16-1.18,5.07-5.12-.24-10.65-.05-21.31-.12-32a8.7,8.7,0,0,0-1.48-4.12,5.93,5.93,0,0,1-1.83-1.69c-11.93-.06-23.87-.14-35.8-.15-.68,0-1.36.61-2.68.9a10.05,10.05,0,0,1-4.48-.73c-12.29-.07-24.58-.15-36.86-.17-.69,0-1.38.61-2.67.84a9.15,9.15,0,0,1-1.64.05s-.46-.05-.93-.79c-12.42,0-24.84-.11-37.26-.1-.85,0-1.7.6-3.22.84a4.08,4.08,0,0,1-2.51-.74c-12.1,0-24.2-.11-36.3-.1C139.37,27.37,138.51,28,137.26,28.21Z" transform="translate(0.09 -0.33)"/></g><g id="Layer_1" data-name="Layer 1"><rect class="cls-2" width="320" height="99.67"/></g><g id="Layer_3" data-name="Layer 3"><path class="cls-3" d="M304.93,27.37H9.33A4.47,4.47,0,0,1,7,29.83v3.5H307.89v-3A4.53,4.53,0,0,1,304.93,27.37Z" transform="translate(0.09 -0.33)"/><path class="cls-3" d="M7,65.29V68A4.48,4.48,0,0,1,9.6,70.41h296a4.61,4.61,0,0,1,2.4-2.9V65.29Z" transform="translate(0.09 -0.33)"/><path class="cls-3" d="M9.33,27.37A4.47,4.47,0,0,1,7,29.83v38h5.51V27.37Z" transform="translate(0.09 -0.33)"/><path class="cls-3" d="M307.89,67.57V30.37a4.53,4.53,0,0,1-3-3h-2.65V69.88h3.52A4.52,4.52,0,0,1,307.89,67.57Z" transform="translate(0.09 -0.33)"/></g><g id="Layer_4" data-name="Layer 4"><rect class="cls-3" x="48.58" y="27.13" width="5.39" height="42.82"/><rect class="cls-3" x="90.67" y="27.2" width="5.06" height="42.89"/><rect class="cls-3" x="133.62" y="27.15" width="5.31" height="42.81"/><rect class="cls-3" x="176.62" y="27.14" width="5.15" height="42.81"/><rect class="cls-3" x="219.61" y="27.14" width="5.36" height="42.81"/><rect class="cls-3" x="261.71" y="27.21" width="5.38" height="42.74"/></g><g id="Layer_5" data-name="Layer 5"><text class="cls-4" transform="translate(17.96 63.61)">S</text><text class="cls-4" transform="translate(59.02 63.61)">Y</text><text x="0.09" y="-0.33"/><text class="cls-4" transform="translate(102.93 63.2)">N</text><text class="cls-4" transform="translate(144.18 63.61)">T</text><text class="cls-4" transform="translate(187.13 63.2)">R</text><text class="cls-4" transform="translate(230.35 62.56)">A</text><text class="cls-5" transform="translate(270.61 63.2)">X</text></g></svg>